{"accessors":[{"name":"group_0_16089887_positions","componentType":5126,"count":3289,"min":[null,null,null],"max":[null,null,null],"type":"VEC3","bufferView":0,"byteOffset":0},{"name":"group_0_16089887_0_indices","componentType":5123,"count":19686,"min":[0],"max":[3288],"type":"SCALAR","bufferView":1,"byteOffset":0}],"asset":{"generator":"obj2gltf","version":"2.0"},"buffers":[{"name":"input","byteLength":78840,"uri":"data:application/octet-stream;base64,"}],"bufferViews":[{"name":"bufferView_0","buffer":0,"byteLength":39468,"byteOffset":0,"byteStride":12,"target":34962},{"name":"bufferView_1","buffer":0,"byteLength":39372,"byteOffset":39468,"target":34963}],"materials":[{"name":"color_16089887","pbrMetallicRoughness":{"baseColorFactor":[0.5,0.5,0.5,1],"metallicFactor":0,"roughnessFactor":1},"emissiveFactor":[0,0,0],"alphaMode":"OPAQUE","doubleSided":false}],"meshes":[{"name":"group_0_16089887","primitives":[{"attributes":{"POSITION":0},"indices":1,"material":0,"mode":4}]}],"nodes":[{"name":"obj_0","mesh":0}],"scene":0,"scenes":[{"nodes":[0]}]}
